<svg xmlns="http://www.w3.org/2000/svg" viewBox="0 0 45.14 45.14"><path d="M32.9 15.71a11 11 0 00-10.36-7.15c-1.09 0-2.15.16-3.16.47a10.7 10.7 0 00-5.17 3.39 10.6 10.6 0 00-2.37 9.49c.2.89.58 1.69.95 2.43.48.96 1.09 1.89 1.88 2.87 1.89 2.37 3.83 4.77 5.7 7.09l1.57 1.95c.18.22.38.33.59.33.22 0 .42-.11.6-.33l2.76-3.35 4.16-5.03A17.25 17.25 0 0032.62 24a10.7 10.7 0 00.28-8.29zm-.75 4.98a8.55 8.55 0 01-.58 2.26 13.81 13.81 0 01-2.3 3.71l-6.72 8.13-1.81-2.25c-1.58-1.96-3.21-3.98-4.8-5.98-.75-.94-1.6-2.08-2.19-3.38a8.46 8.46 0 01-.74-4.75 9.51 9.51 0 015.97-7.81 8.69 8.69 0 014.5-.65 9.46 9.46 0 017.23 4.43 9.4 9.4 0 011.44 6.29zm-9.51 3.37a4.9 4.9 0 01-4.94-4.89 4.86 4.86 0 118.32 3.45 4.89 4.89 0 01-3.38 1.44zm-.07-1.39a3.47 3.47 0 003.49-3.46 3.44 3.44 0 00-3.44-3.52 3.48 3.48 0 00-3.55 3.46 3.46 3.46 0 003.43 3.52h.07zm0 22.47A22.59 22.59 0 010 22.57 22.59 22.59 0 0122.57 0a22.59 22.59 0 0122.57 22.57 22.59 22.59 0 01-22.57 22.57zm0-43.64C10.95 1.5 1.5 10.95 1.5 22.57s9.45 21.07 21.07 21.07 21.07-9.45 21.07-21.07S34.19 1.5 22.57 1.5z" fill="#ff6b00"/></svg>