<svg xmlns="http://www.w3.org/2000/svg" viewBox="0 0 256 51.95"><path d="M45.1 1.09h1.42c1.8 0 6.17 2.11 3.34 8.14L39.8 30.8c-.74 1.13-1.87.7-2.5-.45L26.07 4.57c-.79-2.61 1.05-3.47 2.77-3.47V0H0v1.09h.04c2.22 0 3 .5 3.86 2.15l.85 1.85.14.34h.01l21.09 46.12h6.62l20.48-44.1c1.2-2.67 3.06-6.36 6.14-6.36h.53V0H45.1v1.09zm16.33 0s4.02 0 4.02 4.29l.01.17v40.83l-.01.18c0 3.75-2.62 4.24-3.63 4.29h-.6v1.09H86.5v-1.09h-.47c-1.03-.06-3.44-.54-3.66-3.8V4.87c.2-3.01 2.12-3.67 3.27-3.78h.86V0H61.43v1.09zm59.38.84c9.35 0 13.67 8.22 16.07 16.62h1.22L134.98 0h-43.7v1.09h.66c1.1.09 3.18.53 3.18 4.08l.02.33v40.75l-.02.32c0 3.56-2.11 4.2-3.2 4.29h-.64v1.09h47.3l2.92-19.59h-.96c-4.71 13.82-12.6 17.62-19.12 17.62h-7.79c-.79-.09-2.16-.56-2.16-2.76V28.37c0-2.23 1.41-2.68 2.19-2.76h3.39c2.66 0 8.66 3 9.44 11.33h1.12v-23.3h-1.12c-.77 7.87-6.78 10.38-9.44 10.38h-2.88l.85-.01-.9.01h-.32c-.74-.04-2.34-.4-2.34-2.77V4.33c0-2.63 2.69-2.39 2.69-2.39h6.66zm63.89-.84h.94c3.17 0 4.2 1.68 4.2 3.81v19.54c0 2.01-1 2.41-2.6.71L166.58 0H140.4v1.01h.22c2.48 0 6.72 2.9 6.72 7.48V43.6c0 3.51-1.11 7.26-4.8 7.26h-.51v1.09h12.95v-1.09h-.53c-4.11 0-4.97-3.75-4.97-7.26V13.59c0-3.18.79-3.85 2.66-1.58l.1.11L185 51.95h7.13V4.93c0-2.08.49-3.84 4.06-3.84h.94V0H184.7v1.09zm67.2 47.33L231.72 0H220.2l-10.76 26.18a30.82 30.82 0 00-7.38-2.35c-2.47-.44-5.64-.01-6.22 2.96a3.85 3.85 0 003.06 4.51c1.39.27 2.82-.61 3.73-1.6.71-.77 1.29-1.43 2.39-1.58a8.5 8.5 0 013.46.47l-5.94 14.48c-1.37 3.29-3.43 7.79-6.17 7.79h-.35v1.09h11.99l-.1-1.09c-2.23 0-5.66-1.68-3.26-7.41l5.87-14.1c6.97 2.98 16.41 10.78 19.86 17.47l.51 1.18c.97 2.7-.43 2.86-3.3 2.86v1.09H256v-1.09c-1.1-.2-2.77-.14-4.1-2.44m-40.47-21.33l3.26-7.81c1.03-2.41 2.66-2.46 3.75 0l.11.24 7.72 17.88c-2.8-3.35-10.12-7.91-14.84-10.31" fill="#ff6b00"/></svg>